<svg xmlns="http://www.w3.org/2000/svg" viewBox="0 0 106.8 33.53"><defs><style>.cls-1{fill:#088992;}.cls-2{fill:#066164;}.cls-3{fill:#fff;}</style></defs><g id="Layer_2" data-name="Layer 2"><g id="Layer_1-2" data-name="Layer 1"><path class="cls-1" d="M30.09,18V3.68H36a9.53,9.53,0,0,1,1.81.16,6.63,6.63,0,0,1,1.56.49,4.58,4.58,0,0,1,1.22.82,3.43,3.43,0,0,1,.8,1.18,4,4,0,0,1,.28,1.55,3.37,3.37,0,0,1-.23,1.27,3,3,0,0,1-.71,1.07A3.94,3.94,0,0,1,39.5,11a7.44,7.44,0,0,1-1.83.44v.17a4.62,4.62,0,0,1,2.14.54A3.22,3.22,0,0,1,41,13.37a6.5,6.5,0,0,1,.57,1.57l.76,3H38.4l-.54-2.84a3.6,3.6,0,0,0-.4-1.19,1.63,1.63,0,0,0-.77-.67,3.24,3.24,0,0,0-1.32-.22H33.6V18Zm3.51-7.62h2a3.11,3.11,0,0,0,1.82-.46,1.58,1.58,0,0,0,.63-1.38A1.89,1.89,0,0,0,37.49,7a2.69,2.69,0,0,0-1.77-.5H33.6Z" transform="translate(0 -3.68)"/><path class="cls-1" d="M48.27,18.27a6.9,6.9,0,0,1-2.71-.47,4.58,4.58,0,0,1-1.77-1.27,4.89,4.89,0,0,1-1-1.85,7.93,7.93,0,0,1-.29-2.19,8.73,8.73,0,0,1,.31-2.36,5.91,5.91,0,0,1,1-2,4.59,4.59,0,0,1,1.71-1.39,6.51,6.51,0,0,1,5,0,4.24,4.24,0,0,1,1.68,1.42,5.24,5.24,0,0,1,.81,2.1A8.06,8.06,0,0,1,53,12.84L44.72,13V11.06L50.33,11l-.46,1.11a4.61,4.61,0,0,0,0-1.68,1.84,1.84,0,0,0-.59-1A1.82,1.82,0,0,0,48.06,9a1.91,1.91,0,0,0-1.28.41,2.22,2.22,0,0,0-.67,1.16,7.07,7.07,0,0,0-.2,1.77,4.36,4.36,0,0,0,.59,2.55,2.08,2.08,0,0,0,1.79.8,2.42,2.42,0,0,0,.87-.13,1.24,1.24,0,0,0,.56-.38,1.38,1.38,0,0,0,.31-.6,3.42,3.42,0,0,0,.06-.81l3.2.17a3.93,3.93,0,0,1-.14,1.47,3.54,3.54,0,0,1-.76,1.41,4.21,4.21,0,0,1-1.57,1.06A6.91,6.91,0,0,1,48.27,18.27Z" transform="translate(0 -3.68)"/><path class="cls-1" d="M59.46,18.27A9.59,9.59,0,0,1,57.33,18a4.9,4.9,0,0,1-1.71-.72A3.25,3.25,0,0,1,54.52,16a4.26,4.26,0,0,1-.32-2l3.06-.26a2.42,2.42,0,0,0,.32,1.18,1.66,1.66,0,0,0,.78.68,2.94,2.94,0,0,0,1.21.22,2.76,2.76,0,0,0,1.16-.23.8.8,0,0,0,.49-.77.63.63,0,0,0-.18-.46A1.66,1.66,0,0,0,60.4,14c-.31-.11-.76-.23-1.35-.38s-1.4-.37-2-.56a6.94,6.94,0,0,1-1.52-.67,2.81,2.81,0,0,1-.95-1A3,3,0,0,1,54.27,10a3.24,3.24,0,0,1,.64-2,4,4,0,0,1,1.76-1.27,7,7,0,0,1,2.6-.45,7.16,7.16,0,0,1,2.47.42A3.65,3.65,0,0,1,63.54,8,3.44,3.44,0,0,1,64,10.45l-3,.29a1.8,1.8,0,0,0-.17-1.08A1.65,1.65,0,0,0,60.18,9a2.5,2.5,0,0,0-1.11-.22A2,2,0,0,0,57.94,9a.78.78,0,0,0-.4.68.7.7,0,0,0,.25.55,2,2,0,0,0,.77.39q.54.16,1.38.36c.49.1,1,.23,1.54.39a6.83,6.83,0,0,1,1.49.64,3.25,3.25,0,0,1,1.13,1,3,3,0,0,1,.43,1.64,3.06,3.06,0,0,1-.59,1.86,3.66,3.66,0,0,1-1.71,1.24A7.94,7.94,0,0,1,59.46,18.27Z" transform="translate(0 -3.68)"/><path class="cls-1" d="M69.2,18.27A3.12,3.12,0,0,1,66.44,17a7.06,7.06,0,0,1-.89-4V6.54h3.5v6.4a3.14,3.14,0,0,0,.36,1.76,1.2,1.2,0,0,0,1,.5,1.66,1.66,0,0,0,.87-.25,2.18,2.18,0,0,0,.71-.76,4.09,4.09,0,0,0,.46-1.31A9.67,9.67,0,0,0,72.65,11V6.54h3.5V18h-3V13.51H73a8.49,8.49,0,0,1-.58,2.71,3.24,3.24,0,0,1-1.26,1.55A3.67,3.67,0,0,1,69.2,18.27Z" transform="translate(0 -3.68)"/><path class="cls-1" d="M77.71,18V6.54h3v4.65h.17a10.21,10.21,0,0,1,.59-2.9,3.4,3.4,0,0,1,1.19-1.57,3.26,3.26,0,0,1,1.79-.49,2.74,2.74,0,0,1,1.75.53,3.18,3.18,0,0,1,1,1.63,9.32,9.32,0,0,1,.3,2.8h.18a9.39,9.39,0,0,1,.62-2.88,3.47,3.47,0,0,1,1.26-1.58,3.36,3.36,0,0,1,1.84-.5,3.39,3.39,0,0,1,1.54.33,2.88,2.88,0,0,1,1.09,1,4.93,4.93,0,0,1,.66,1.64,11,11,0,0,1,.22,2.3V18H91.37v-6.2a5.89,5.89,0,0,0-.14-1.37,1.8,1.8,0,0,0-.42-.82,1,1,0,0,0-.72-.27,1.42,1.42,0,0,0-1,.51,3.72,3.72,0,0,0-.77,1.52A9.76,9.76,0,0,0,88,13.92v4H84.57V11.69a5.39,5.39,0,0,0-.14-1.34A1.54,1.54,0,0,0,84,9.57a1,1,0,0,0-.73-.26,1.44,1.44,0,0,0-1,.44,3.21,3.21,0,0,0-.76,1.46,9.94,9.94,0,0,0-.29,2.71v4Z" transform="translate(0 -3.68)"/><path class="cls-1" d="M101.76,18.27A7,7,0,0,1,99,17.8a4.47,4.47,0,0,1-1.76-1.27,5.05,5.05,0,0,1-1-1.85A8.33,8.33,0,0,1,96,12.49a8.73,8.73,0,0,1,.32-2.36,5.73,5.73,0,0,1,1-2A4.59,4.59,0,0,1,99,6.74a6.48,6.48,0,0,1,5,0,4.24,4.24,0,0,1,1.68,1.42,5,5,0,0,1,.81,2.1,7.77,7.77,0,0,1,0,2.58L98.21,13V11.06l5.6-.11-.45,1.11a4.61,4.61,0,0,0,0-1.68,1.85,1.85,0,0,0-.6-1A1.8,1.8,0,0,0,101.54,9a1.93,1.93,0,0,0-1.28.41,2.29,2.29,0,0,0-.67,1.16,7.11,7.11,0,0,0-.19,1.77,4.36,4.36,0,0,0,.58,2.55,2.09,2.09,0,0,0,1.8.8,2.45,2.45,0,0,0,.87-.13,1.3,1.3,0,0,0,.56-.38,1.48,1.48,0,0,0,.3-.6,3,3,0,0,0,.07-.81l3.2.17a4.15,4.15,0,0,1-.14,1.47,3.57,3.57,0,0,1-.77,1.41,4.13,4.13,0,0,1-1.57,1.06A6.85,6.85,0,0,1,101.76,18.27Z" transform="translate(0 -3.68)"/><path class="cls-2" d="M31,34.22a2,2,0,0,1-.86-.18,1.36,1.36,0,0,1-.59-.52,1.59,1.59,0,0,1-.22-.84,1.73,1.73,0,0,1,.17-.78,2,2,0,0,1,.41-.56,2.43,2.43,0,0,1,.52-.36,2.66,2.66,0,0,1,.46-.19l.28.53a1.88,1.88,0,0,0-.23.42,1.31,1.31,0,0,0-.09.47.94.94,0,0,0,.17.55,1,1,0,0,0,.43.36,1.41,1.41,0,0,0,.58.13.86.86,0,0,0,.24,0,1,1,0,0,0,.21-.1l.11.19h-.08a1.36,1.36,0,0,1-.29.49,1.64,1.64,0,0,1-.51.32A2,2,0,0,1,31,34.22Zm3.62,0A2.39,2.39,0,0,1,33.57,34a4.17,4.17,0,0,1-1-.66,6.06,6.06,0,0,1-.87-1,7.18,7.18,0,0,1-.69-1.1,6.38,6.38,0,0,1-.46-1.11,3.76,3.76,0,0,1-.16-1,1.82,1.82,0,0,1,.22-.9,1.57,1.57,0,0,1,.67-.68,2.73,2.73,0,0,1,2.26,0,1.56,1.56,0,0,1,.64.57,1.26,1.26,0,0,1,.22.71,1.4,1.4,0,0,1-.24.77,2.13,2.13,0,0,1-.7.66,3.92,3.92,0,0,1-1.13.48l-.21-.54a2.81,2.81,0,0,0,.6-.52,1,1,0,0,0,.23-.61.6.6,0,0,0-.1-.35.43.43,0,0,0-.36-.14.49.49,0,0,0-.28.08.43.43,0,0,0-.15.2.86.86,0,0,0,0,.27,2,2,0,0,0,.12.59,5.35,5.35,0,0,0,.31.79,7.62,7.62,0,0,0,.44.85,7.75,7.75,0,0,0,.52.76,3.23,3.23,0,0,0,.54.56.85.85,0,0,0,.5.21.28.28,0,0,0,.24-.11.36.36,0,0,0,.07-.22.71.71,0,0,0-.14-.38,1.24,1.24,0,0,0-.45-.37,1.88,1.88,0,0,0-.83-.2V30.54h2.51V31.7l-1.7-.26v.09a3.75,3.75,0,0,1,1.43.5,1.11,1.11,0,0,1,.5,1,1.16,1.16,0,0,1-.15.62,1.09,1.09,0,0,1-.38.36,1.57,1.57,0,0,1-.48.18A2.47,2.47,0,0,1,34.63,34.22Z" transform="translate(0 -3.68)"/><path class="cls-2" d="M39,34.07V20.8h5.35a9.51,9.51,0,0,1,2.18.22,5.39,5.39,0,0,1,1.63.65,3,3,0,0,1,1,1.08,3.39,3.39,0,0,1,0,3,2.43,2.43,0,0,1-1.07,1,5.06,5.06,0,0,1-1.92.5v.18a4.59,4.59,0,0,1,2.95.94,2.9,2.9,0,0,1,.91,2.23,3.05,3.05,0,0,1-.6,1.94,3.64,3.64,0,0,1-1.76,1.15,9.09,9.09,0,0,1-2.87.39Zm3.26-7.76H44a3.34,3.34,0,0,0,1.75-.38,1.26,1.26,0,0,0,.6-1.13,1.16,1.16,0,0,0-.54-1.05,3,3,0,0,0-1.63-.36H42.28Zm0,5.15h2.45a2.83,2.83,0,0,0,1.59-.37A1.18,1.18,0,0,0,46.88,30a1.21,1.21,0,0,0-.63-1.13,3.78,3.78,0,0,0-1.9-.38H42.28Z" transform="translate(0 -3.68)"/><path class="cls-2" d="M56.22,34.36a6.45,6.45,0,0,1-2.53-.44,4.25,4.25,0,0,1-1.64-1.18A4.78,4.78,0,0,1,51.16,31a7.54,7.54,0,0,1-.27-2,8,8,0,0,1,.29-2.2,5.54,5.54,0,0,1,.9-1.86,4.27,4.27,0,0,1,1.59-1.28,6,6,0,0,1,4.69,0A3.92,3.92,0,0,1,59.92,25a4.62,4.62,0,0,1,.75,1.95,7.22,7.22,0,0,1-.05,2.4l-7.7.12V27.66l5.21-.1-.42,1a4.43,4.43,0,0,0,0-1.56,1.7,1.7,0,0,0-.56-1,1.68,1.68,0,0,0-1.1-.33,1.72,1.72,0,0,0-1.19.38,2,2,0,0,0-.62,1.08A6.49,6.49,0,0,0,54,28.82a4.12,4.12,0,0,0,.54,2.38,1.94,1.94,0,0,0,1.67.74,2.29,2.29,0,0,0,.8-.12,1.33,1.33,0,0,0,.53-.35,1.41,1.41,0,0,0,.28-.56,3,3,0,0,0,.06-.76l3,.16a3.8,3.8,0,0,1-.13,1.37A3.18,3.18,0,0,1,60,33a3.79,3.79,0,0,1-1.46,1A6.16,6.16,0,0,1,56.22,34.36Z" transform="translate(0 -3.68)"/><path class="cls-2" d="M65.77,37.21A9.79,9.79,0,0,1,63,36.79a6.83,6.83,0,0,1-1.35-.56L62.39,33a4.22,4.22,0,0,0,1.62,1,5.38,5.38,0,0,0,1.6.29,3.26,3.26,0,0,0,1.66-.4,2.47,2.47,0,0,0,1-1.14,4.61,4.61,0,0,0,.34-1.84V29h-.18a5.93,5.93,0,0,1-.46,2.3,2.87,2.87,0,0,1-1.11,1.32,3.12,3.12,0,0,1-1.63.42,3,3,0,0,1-1.9-.58,3.62,3.62,0,0,1-1.14-1.75,9.67,9.67,0,0,1-.38-2.92V23.45h3.24v3.46a6.4,6.4,0,0,0,.36,2.5,1.2,1.2,0,0,0,1.15.78,1.26,1.26,0,0,0,.71-.21,1.45,1.45,0,0,0,.51-.64,3.94,3.94,0,0,0,.31-1.09,11.05,11.05,0,0,0,.1-1.52V23.45h3.23v7.49a8.92,8.92,0,0,1-.22,2,6.28,6.28,0,0,1-.66,1.73,5.16,5.16,0,0,1-1.12,1.34,4.87,4.87,0,0,1-1.59.86A6.65,6.65,0,0,1,65.77,37.21Z" transform="translate(0 -3.68)"/><path class="cls-2" d="M77.76,34.36A5.86,5.86,0,0,1,75,33.74a4.35,4.35,0,0,1-1.85-1.85,6.54,6.54,0,0,1-.66-3.11,6.46,6.46,0,0,1,.69-3.18,4.35,4.35,0,0,1,1.9-1.83,6.39,6.39,0,0,1,5.45,0,4.3,4.3,0,0,1,1.83,1.85,6.68,6.68,0,0,1,.65,3.12A6.47,6.47,0,0,1,82.36,32a4.33,4.33,0,0,1-1.9,1.82A6,6,0,0,1,77.76,34.36Zm.08-2.4a1.57,1.57,0,0,0,1-.35,2.18,2.18,0,0,0,.64-1A5.16,5.16,0,0,0,79.75,29a5.54,5.54,0,0,0-.24-1.76,2.37,2.37,0,0,0-.69-1.1,1.64,1.64,0,0,0-1.1-.38,1.53,1.53,0,0,0-1,.35,2.2,2.2,0,0,0-.64,1,5.36,5.36,0,0,0-.22,1.65,4.54,4.54,0,0,0,.53,2.38A1.67,1.67,0,0,0,77.84,32Z" transform="translate(0 -3.68)"/><path class="cls-2" d="M84.22,34.07V23.45H87v4.33h.16a8.92,8.92,0,0,1,.53-2.59,3.14,3.14,0,0,1,1.14-1.51,3.29,3.29,0,0,1,1.89-.51,3.07,3.07,0,0,1,2.61,1.15,5.6,5.6,0,0,1,.87,3.42v6.33H90.91V28.16a3.21,3.21,0,0,0-.33-1.63,1.14,1.14,0,0,0-1-.54,1.56,1.56,0,0,0-1.07.42,2.8,2.8,0,0,0-.72,1.37,9.51,9.51,0,0,0-.27,2.53v3.76Z" transform="translate(0 -3.68)"/><path class="cls-2" d="M99.38,34.36a3.56,3.56,0,0,1-2.06-.63,4.13,4.13,0,0,1-1.45-1.89,8.39,8.39,0,0,1-.53-3.2,8.32,8.32,0,0,1,.48-3,3.82,3.82,0,0,1,1.37-1.82,3.53,3.53,0,0,1,2.07-.61,3.45,3.45,0,0,1,1.64.38,3,3,0,0,1,1.18,1.21,6.08,6.08,0,0,1,.64,2.15h.18c-.06-.45-.13-.9-.2-1.34s-.12-.88-.15-1.29,0-.81,0-1.17V20h3.26V34.07h-2.84V30.8h-.14a6.53,6.53,0,0,1-.67,2A3.1,3.1,0,0,1,101,34,3,3,0,0,1,99.38,34.36Zm1.15-2.6a1.76,1.76,0,0,0,1.39-.7,3,3,0,0,0,.45-.91,4.43,4.43,0,0,0,.17-1.29v-.14a4.32,4.32,0,0,0-.12-1.07,3,3,0,0,0-.32-.81,2.08,2.08,0,0,0-.47-.54,1.77,1.77,0,0,0-.55-.31,1.63,1.63,0,0,0-.57-.1,1.42,1.42,0,0,0-1.05.42,2.52,2.52,0,0,0-.62,1.1,5.18,5.18,0,0,0-.2,1.45,4.46,4.46,0,0,0,.22,1.45,2.47,2.47,0,0,0,.64,1.06A1.49,1.49,0,0,0,100.53,31.76Z" transform="translate(0 -3.68)"/><path class="cls-2" d="M25.55,34.09H0V5.32H20.1a.82.82,0,0,1,.6.25l4.62,4.8a.82.82,0,0,1,.23.58Z" transform="translate(0 -3.68)"/><path class="cls-3" d="M5,34.09V10.6H11.2v9.34h.35a22.75,22.75,0,0,1,1-5.89,6.6,6.6,0,0,1,2-3.07,4.17,4.17,0,0,1,2.64-.91,6.75,6.75,0,0,1,3.38.93l-.35,8a8.89,8.89,0,0,0-1.91-.87,6.17,6.17,0,0,0-1.78-.29,3.72,3.72,0,0,0-2.41.8A4.94,4.94,0,0,0,12.64,21a12.26,12.26,0,0,0-.51,3.78v9.3Z" transform="translate(0 -3.68)"/></g></g></svg>